<svg xmlns="http://www.w3.org/2000/svg" xmlns:xlink="http://www.w3.org/1999/xlink" width="32" height="32" id="date"><defs><linearGradient id="a"><stop offset="0" stop-color="#24f3d2"></stop><stop offset=".394" stop-color="#0674f0"></stop><stop offset=".507" stop-color="#6961b5"></stop><stop offset=".813" stop-color="#f34660"></stop><stop offset="1" stop-color="#ee078d"></stop></linearGradient><linearGradient id="b" x1="868.253" x2="937.656" y1="521.354" y2="588.736" gradientTransform="translate(-893.646 499.682) scale(1.02524)" gradientUnits="userSpaceOnUse" xlink:href="#a"></linearGradient></defs><g fill="#fff" transform="translate(9 -1028.362)"><rect width="32" height="32" x="-9" y="1028.362" fill="url(#b)" rx="6.763" ry="6.763"></rect><path style="text-indent:0;text-align:start;line-height:normal;text-transform:none;block-progression:tb" fill-rule="evenodd" d="M18.5 8a.5.5 0 0 0-.5.531V10h-1.5a.5.5 0 0 0-.5.5v1.813c.418-.011 1 .374 1 .374V11h1.406a.5.5 0 0 0 .219 0h3.75a.5.5 0 0 0 .25 0H24v5h-3.688c.282.287.294.658.375 1H24.5a.5.5 0 0 0 .5-.5v-6a.5.5 0 0 0-.5-.5H23V8.531A.5.5 0 0 0 22.5 8a.5.5 0 0 0-.5.531V10h-3V8.531A.5.5 0 0 0 18.5 8zm-.5 4v1h1v-1h-1zm2 0v1h1v-1h-1zm2 0v1h1v-1h-1zm-7.5 1A5.512 5.512 0 0 0 9 18.5c0 3.028 2.472 5.5 5.5 5.5s5.5-2.472 5.5-5.5-2.472-5.5-5.5-5.5zm0 1c2.489 0 4.5 2.011 4.5 4.5S16.989 23 14.5 23a4.495 4.495 0 0 1-4.5-4.5c0-2.489 2.011-4.5 4.5-4.5zm5.5 0v1h1v-1h-1zm2 0v1h1v-1h-1zm-7.563.656a.5.5 0 0 0-.437.531V18.5a.5.5 0 0 0 .5.5h3a.5.5 0 1 0 0-1H15v-2.813a.5.5 0 0 0-.5-.53.5.5 0 0 0-.063 0z" color="#000" font-family="sans-serif" font-weight="400" overflow="visible" transform="translate(-9 1028.362)"></path></g></svg>